<svg xmlns="http://www.w3.org/2000/svg" width="20" height="20" viewBox="0 0 20 20"><title>memos-code-s</title><g fill="#888" fill-rule="evenodd"><path fill-rule="nonzero" d="M12.79 0C17.828 0 20 2.173 20 7.21v5.58c0 5.037-2.173 7.21-7.21 7.21H7.21C2.172 20 0 17.827 0 12.79V7.21C0 2.172 2.173 0 7.21 0h5.58Zm0 1.395H7.21c-4.267 0-5.815 1.548-5.815 5.814v5.582c0 4.266 1.548 5.814 5.814 5.814h5.582c4.266 0 5.814-1.548 5.814-5.814V7.209c0-4.266-1.548-5.814-5.814-5.814Z"/><path d="M11.633 7.356a.575.575 0 0 1 .83.22l2.087 4.135c.166.329.06.73-.248.933a.575.575 0 0 1-.83-.22l-2.087-4.135a.726.726 0 0 1 .248-.933ZM5.698 7.356a.575.575 0 0 1 .83.22l2.087 4.135c.166.329.059.73-.248.933a.575.575 0 0 1-.83-.22L5.45 8.288a.726.726 0 0 1 .248-.933Z"/></g></svg>