<svg xmlns="http://www.w3.org/2000/svg" width="20" height="20" viewBox="0 0 20 20"><title>memos_user</title><g fill="#888" fill-rule="nonzero"><path d="M12.79 0C17.828 0 20 2.173 20 7.21v5.58c0 5.037-2.173 7.21-7.21 7.21H7.21C2.172 20 0 17.827 0 12.79V7.21C0 2.172 2.173 0 7.21 0h5.58Zm0 1.395H7.21c-4.267 0-5.815 1.548-5.815 5.814v5.582c0 4.266 1.548 5.814 5.814 5.814h5.582c4.266 0 5.814-1.548 5.814-5.814V7.209c0-4.266-1.548-5.814-5.814-5.814Z"/><path d="M9.277 4c1.696 0 3.065 1.418 3.065 3.16 0 1.743-1.369 3.16-3.065 3.16S6.21 8.904 6.21 7.16C6.211 5.418 7.581 4 9.277 4Zm0 1.282c-.991 0-1.8.838-1.8 1.878s.809 1.878 1.8 1.878c.99 0 1.8-.837 1.8-1.878 0-1.04-.81-1.878-1.8-1.878ZM8.812 10.794c.563 0 1.112.083 1.631.245a.643.643 0 0 1 .42.801.631.631 0 0 1-.792.425 4.228 4.228 0 0 0-1.259-.189c-1.981 0-3.546 1.32-3.546 2.886a.637.637 0 0 1-.633.641.637.637 0 0 1-.633-.641c0-2.332 2.178-4.168 4.812-4.168ZM13.39 11.31c.633-.646 1.398-.726 2.105-.006.71.724.635 1.504 0 2.151l-2.024 2.06a1.26 1.26 0 0 1-.689.362l-.776.112c-.671.097-1.2-.442-1.104-1.124l.11-.802c.037-.237.17-.506.339-.677l2.038-2.076Zm1.411.7c-.231-.236-.262-.233-.497.006l-2.303 2.348-.089.595.569-.081c-.01.001.004-.007.012-.01l2.308-2.346c.235-.239.238-.27 0-.512Z"/></g></svg>