<svg xmlns="http://www.w3.org/2000/svg" width="20" height="20" viewBox="0 0 20 20"><title>memos-emoji</title><g fill="none" fill-rule="evenodd"><path fill="#888" fill-rule="nonzero" d="M12.79 0C17.828 0 20 2.173 20 7.21v5.58c0 5.037-2.173 7.21-7.21 7.21H7.21C2.172 20 0 17.827 0 12.79V7.21C0 2.172 2.173 0 7.21 0h5.58Zm0 1.395H7.21c-4.267 0-5.815 1.548-5.815 5.814v5.582c0 4.266 1.548 5.814 5.814 5.814h5.582c4.266 0 5.814-1.548 5.814-5.814V7.209c0-4.266-1.548-5.814-5.814-5.814Z"/><path stroke="#888" stroke-dasharray="0 0" stroke-linecap="round" stroke-linejoin="round" stroke-width="1.3" d="M12.8 7.51c-.663 0-1.2-.562-1.2-1.255 0-.693.537-1.255 1.2-1.255.663 0 1.2.562 1.2 1.255 0 .693-.537 1.255-1.2 1.255ZM7.2 7.51c-.663 0-1.2-.562-1.2-1.255C6 5.562 6.537 5 7.2 5c.663 0 1.2.562 1.2 1.255 0 .693-.537 1.255-1.2 1.255ZM12.88 10.481c.4 0 .72.335.72.753C13.6 13.318 11.992 15 10 15s-3.6-1.682-3.6-3.766c0-.418.32-.753.72-.753h5.76Z"/></g></svg>